<?xml version="1.0" encoding="UTF-8" standalone="no"?>
<!DOCTYPE svg PUBLIC "-//W3C//DTD SVG 1.1//EN"
 "http://www.w3.org/Graphics/SVG/1.1/DTD/svg11.dtd">
<!-- Generated by graphviz version 2.38.0 (20140413.2041)
 -->
<!-- Title: controllers_diagram Pages: 1 -->
<svg width="547pt" height="581pt"
 viewBox="0.00 0.00 547.49 581.00" xmlns="http://www.w3.org/2000/svg" xmlns:xlink="http://www.w3.org/1999/xlink">
<g id="graph0" class="graph" transform="scale(1 1) rotate(0) translate(244.39 337.5)">
<title>controllers_diagram</title>
<polygon fill="white" stroke="none" points="-244.39,243.5 -244.39,-337.5 303.097,-337.5 303.097,243.5 -244.39,243.5"/>
<!-- _diagram_info -->
<g id="node1" class="node"><title>_diagram_info</title>
<text text-anchor="start" x="97.5503" y="-119.1" font-family="Times,serif" font-size="13.00">Controllers diagram</text>
<text text-anchor="start" x="97.5503" y="-106.1" font-family="Times,serif" font-size="13.00">Date: Feb 11 2015 &#45; 10:35</text>
<text text-anchor="start" x="97.5503" y="-93.1" font-family="Times,serif" font-size="13.00">Migration version: 20150211034124</text>
<text text-anchor="start" x="97.5503" y="-80.1" font-family="Times,serif" font-size="13.00">Generated by RailRoady 1.3.0</text>
<text text-anchor="start" x="97.5503" y="-67.1" font-family="Times,serif" font-size="13.00">http://railroady.prestonlee.com</text>
</g>
<!-- AllergiesController -->
<g id="node2" class="node"><title>AllergiesController</title>
<path fill="none" stroke="black" d="M-213.308,-1C-213.308,-1 -112.692,-1 -112.692,-1 -106.692,-1 -100.692,-7 -100.692,-13 -100.692,-13 -100.692,-79 -100.692,-79 -100.692,-85 -106.692,-91 -112.692,-91 -112.692,-91 -213.308,-91 -213.308,-91 -219.308,-91 -225.308,-85 -225.308,-79 -225.308,-79 -225.308,-13 -225.308,-13 -225.308,-7 -219.308,-1 -213.308,-1"/>
<text text-anchor="middle" x="-163" y="-75.8" font-family="Times,serif" font-size="14.00">AllergiesController</text>
<polyline fill="none" stroke="black" points="-225.308,-69 -100.692,-69 "/>
<text text-anchor="start" x="-217.308" y="-53.8" font-family="Times,serif" font-size="14.00">index</text>
<polyline fill="none" stroke="black" points="-225.308,-47 -100.692,-47 "/>
<polyline fill="none" stroke="black" points="-225.308,-23 -100.692,-23 "/>
<text text-anchor="start" x="-217.308" y="-7.8" font-family="Times,serif" font-size="14.00">_layout</text>
</g>
<!-- ApplicationController -->
<g id="node3" class="node"><title>ApplicationController</title>
<path fill="none" stroke="black" d="M-227.821,-241C-227.821,-241 -112.179,-241 -112.179,-241 -106.179,-241 -100.179,-247 -100.179,-253 -100.179,-253 -100.179,-321 -100.179,-321 -100.179,-327 -106.179,-333 -112.179,-333 -112.179,-333 -227.821,-333 -227.821,-333 -233.821,-333 -239.821,-327 -239.821,-321 -239.821,-321 -239.821,-253 -239.821,-253 -239.821,-247 -233.821,-241 -227.821,-241"/>
<text text-anchor="middle" x="-170" y="-317.8" font-family="Times,serif" font-size="14.00">ApplicationController</text>
<polyline fill="none" stroke="black" points="-239.821,-311 -100.179,-311 "/>
<polyline fill="none" stroke="black" points="-239.821,-287 -100.179,-287 "/>
<polyline fill="none" stroke="black" points="-239.821,-263 -100.179,-263 "/>
<text text-anchor="start" x="-231.821" y="-247.8" font-family="Times,serif" font-size="14.00">_layout</text>
</g>
<!-- CommentsController -->
<g id="node4" class="node"><title>CommentsController</title>
<path fill="none" stroke="black" d="M-63.1069,-151C-63.1069,-151 47.1069,-151 47.1069,-151 53.1069,-151 59.1069,-157 59.1069,-163 59.1069,-163 59.1069,-271 59.1069,-271 59.1069,-277 53.1069,-283 47.1069,-283 47.1069,-283 -63.1069,-283 -63.1069,-283 -69.1069,-283 -75.1069,-277 -75.1069,-271 -75.1069,-271 -75.1069,-163 -75.1069,-163 -75.1069,-157 -69.1069,-151 -63.1069,-151"/>
<text text-anchor="middle" x="-8" y="-267.8" font-family="Times,serif" font-size="14.00">CommentsController</text>
<polyline fill="none" stroke="black" points="-75.1069,-261 59.1069,-261 "/>
<text text-anchor="start" x="-67.1069" y="-245.8" font-family="Times,serif" font-size="14.00">create</text>
<text text-anchor="start" x="-67.1069" y="-231.8" font-family="Times,serif" font-size="14.00">destroy</text>
<polyline fill="none" stroke="black" points="-75.1069,-225 59.1069,-225 "/>
<polyline fill="none" stroke="black" points="-75.1069,-201 59.1069,-201 "/>
<text text-anchor="start" x="-67.1069" y="-185.8" font-family="Times,serif" font-size="14.00">_layout</text>
<text text-anchor="start" x="-67.1069" y="-171.8" font-family="Times,serif" font-size="14.00">comment_params</text>
<text text-anchor="start" x="-67.1069" y="-157.8" font-family="Times,serif" font-size="14.00">set_recipe</text>
</g>
<!-- DashboardController -->
<g id="node5" class="node"><title>DashboardController</title>
<path fill="none" stroke="black" d="M176.903,-166C176.903,-166 287.097,-166 287.097,-166 293.097,-166 299.097,-172 299.097,-178 299.097,-178 299.097,-258 299.097,-258 299.097,-264 293.097,-270 287.097,-270 287.097,-270 176.903,-270 176.903,-270 170.903,-270 164.903,-264 164.903,-258 164.903,-258 164.903,-178 164.903,-178 164.903,-172 170.903,-166 176.903,-166"/>
<text text-anchor="middle" x="232" y="-254.8" font-family="Times,serif" font-size="14.00">DashboardController</text>
<polyline fill="none" stroke="black" points="164.903,-248 299.097,-248 "/>
<text text-anchor="start" x="172.903" y="-232.8" font-family="Times,serif" font-size="14.00">index</text>
<polyline fill="none" stroke="black" points="164.903,-226 299.097,-226 "/>
<polyline fill="none" stroke="black" points="164.903,-202 299.097,-202 "/>
<text text-anchor="start" x="172.903" y="-186.8" font-family="Times,serif" font-size="14.00">_layout</text>
<text text-anchor="start" x="172.903" y="-172.8" font-family="Times,serif" font-size="14.00">filter</text>
</g>
<!-- FoodflagsController -->
<g id="node6" class="node"><title>FoodflagsController</title>
<path fill="none" stroke="black" d="M-228.39,119C-228.39,119 -123.61,119 -123.61,119 -117.61,119 -111.61,113 -111.61,107 -111.61,107 -111.61,41 -111.61,41 -111.61,35 -117.61,29 -123.61,29 -123.61,29 -228.39,29 -228.39,29 -234.39,29 -240.39,35 -240.39,41 -240.39,41 -240.39,107 -240.39,107 -240.39,113 -234.39,119 -228.39,119"/>
<text text-anchor="middle" x="-176" y="44.2" font-family="Times,serif" font-size="14.00">FoodflagsController</text>
<polyline fill="none" stroke="black" points="-240.39,51 -111.61,51 "/>
<text text-anchor="start" x="-232.39" y="66.2" font-family="Times,serif" font-size="14.00">index</text>
<polyline fill="none" stroke="black" points="-240.39,73 -111.61,73 "/>
<polyline fill="none" stroke="black" points="-240.39,97 -111.61,97 "/>
<text text-anchor="start" x="-232.39" y="112.2" font-family="Times,serif" font-size="14.00">_layout</text>
</g>
<!-- IngredientflagsController -->
<g id="node7" class="node"><title>IngredientflagsController</title>
<path fill="none" stroke="black" d="M102.238,209C102.238,209 235.762,209 235.762,209 241.762,209 247.762,203 247.762,197 247.762,197 247.762,131 247.762,131 247.762,125 241.762,119 235.762,119 235.762,119 102.238,119 102.238,119 96.2378,119 90.2378,125 90.2378,131 90.2378,131 90.2378,197 90.2378,197 90.2378,203 96.2378,209 102.238,209"/>
<text text-anchor="middle" x="169" y="134.2" font-family="Times,serif" font-size="14.00">IngredientflagsController</text>
<polyline fill="none" stroke="black" points="90.2378,141 247.762,141 "/>
<text text-anchor="start" x="98.2378" y="156.2" font-family="Times,serif" font-size="14.00">index</text>
<polyline fill="none" stroke="black" points="90.2378,163 247.762,163 "/>
<polyline fill="none" stroke="black" points="90.2378,187 247.762,187 "/>
<text text-anchor="start" x="98.2378" y="202.2" font-family="Times,serif" font-size="14.00">_layout</text>
</g>
<!-- RaterController -->
<g id="node8" class="node"><title>RaterController</title>
<path fill="none" stroke="black" d="M-227.931,239C-227.931,239 -148.069,239 -148.069,239 -142.069,239 -136.069,233 -136.069,227 -136.069,227 -136.069,161 -136.069,161 -136.069,155 -142.069,149 -148.069,149 -148.069,149 -227.931,149 -227.931,149 -233.931,149 -239.931,155 -239.931,161 -239.931,161 -239.931,227 -239.931,227 -239.931,233 -233.931,239 -227.931,239"/>
<text text-anchor="middle" x="-188" y="164.2" font-family="Times,serif" font-size="14.00">RaterController</text>
<polyline fill="none" stroke="black" points="-239.931,171 -136.069,171 "/>
<text text-anchor="start" x="-231.931" y="186.2" font-family="Times,serif" font-size="14.00">create</text>
<polyline fill="none" stroke="black" points="-239.931,193 -136.069,193 "/>
<polyline fill="none" stroke="black" points="-239.931,217 -136.069,217 "/>
<text text-anchor="start" x="-231.931" y="232.2" font-family="Times,serif" font-size="14.00">_layout</text>
</g>
<!-- RecipesController -->
<g id="node9" class="node"><title>RecipesController</title>
<path fill="none" stroke="black" d="M-63.4829,149C-63.4829,149 47.4829,149 47.4829,149 53.4829,149 59.4829,143 59.4829,137 59.4829,137 59.4829,-111 59.4829,-111 59.4829,-117 53.4829,-123 47.4829,-123 47.4829,-123 -63.4829,-123 -63.4829,-123 -69.4829,-123 -75.4829,-117 -75.4829,-111 -75.4829,-111 -75.4829,137 -75.4829,137 -75.4829,143 -69.4829,149 -63.4829,149"/>
<text text-anchor="middle" x="-8" y="-107.8" font-family="Times,serif" font-size="14.00">RecipesController</text>
<polyline fill="none" stroke="black" points="-75.4829,-101 59.4829,-101 "/>
<text text-anchor="start" x="-67.4829" y="-85.8" font-family="Times,serif" font-size="14.00">create</text>
<text text-anchor="start" x="-67.4829" y="-71.8" font-family="Times,serif" font-size="14.00">destroy</text>
<text text-anchor="start" x="-67.4829" y="-57.8" font-family="Times,serif" font-size="14.00">edit</text>
<text text-anchor="start" x="-67.4829" y="-43.8" font-family="Times,serif" font-size="14.00">index</text>
<text text-anchor="start" x="-67.4829" y="-29.8" font-family="Times,serif" font-size="14.00">new</text>
<text text-anchor="start" x="-67.4829" y="-15.8" font-family="Times,serif" font-size="14.00">show</text>
<text text-anchor="start" x="-67.4829" y="-1.8" font-family="Times,serif" font-size="14.00">update</text>
<polyline fill="none" stroke="black" points="-75.4829,5 59.4829,5 "/>
<polyline fill="none" stroke="black" points="-75.4829,29 59.4829,29 "/>
<text text-anchor="start" x="-67.4829" y="44.2" font-family="Times,serif" font-size="14.00">_layout</text>
<text text-anchor="start" x="-67.4829" y="58.2" font-family="Times,serif" font-size="14.00">filter</text>
<text text-anchor="start" x="-67.4829" y="72.2" font-family="Times,serif" font-size="14.00">match_ingredientflag</text>
<text text-anchor="start" x="-67.4829" y="86.2" font-family="Times,serif" font-size="14.00">rating_exist</text>
<text text-anchor="start" x="-67.4829" y="100.2" font-family="Times,serif" font-size="14.00">recipe_params</text>
<text text-anchor="start" x="-67.4829" y="114.2" font-family="Times,serif" font-size="14.00">set_recipe</text>
<text text-anchor="start" x="-67.4829" y="128.2" font-family="Times,serif" font-size="14.00">set_user</text>
<text text-anchor="start" x="-67.4829" y="142.2" font-family="Times,serif" font-size="14.00">split_ingredients</text>
</g>
<!-- RegistrationsController -->
<g id="node10" class="node"><title>RegistrationsController</title>
<path fill="none" stroke="black" d="M102.352,89C102.352,89 229.648,89 229.648,89 235.648,89 241.648,83 241.648,77 241.648,77 241.648,-17 241.648,-17 241.648,-23 235.648,-29 229.648,-29 229.648,-29 102.352,-29 102.352,-29 96.3516,-29 90.3516,-23 90.3516,-17 90.3516,-17 90.3516,77 90.3516,77 90.3516,83 96.3516,89 102.352,89"/>
<text text-anchor="middle" x="166" y="-13.8" font-family="Times,serif" font-size="14.00">RegistrationsController</text>
<polyline fill="none" stroke="black" points="90.3516,-7 241.648,-7 "/>
<text text-anchor="start" x="98.3516" y="8.2" font-family="Times,serif" font-size="14.00">after_sign_out_path_for</text>
<polyline fill="none" stroke="black" points="90.3516,15 241.648,15 "/>
<polyline fill="none" stroke="black" points="90.3516,39 241.648,39 "/>
<text text-anchor="start" x="98.3516" y="54.2" font-family="Times,serif" font-size="14.00">_layout</text>
<text text-anchor="start" x="98.3516" y="68.2" font-family="Times,serif" font-size="14.00">account_update_params</text>
<text text-anchor="start" x="98.3516" y="82.2" font-family="Times,serif" font-size="14.00">sign_up_params</text>
</g>
<!-- WelcomeController -->
<g id="node11" class="node"><title>WelcomeController</title>
<path fill="none" stroke="black" d="M-213.033,-121C-213.033,-121 -110.967,-121 -110.967,-121 -104.967,-121 -98.9673,-127 -98.9673,-133 -98.9673,-133 -98.9673,-199 -98.9673,-199 -98.9673,-205 -104.967,-211 -110.967,-211 -110.967,-211 -213.033,-211 -213.033,-211 -219.033,-211 -225.033,-205 -225.033,-199 -225.033,-199 -225.033,-133 -225.033,-133 -225.033,-127 -219.033,-121 -213.033,-121"/>
<text text-anchor="middle" x="-162" y="-195.8" font-family="Times,serif" font-size="14.00">WelcomeController</text>
<polyline fill="none" stroke="black" points="-225.033,-189 -98.9673,-189 "/>
<text text-anchor="start" x="-217.033" y="-173.8" font-family="Times,serif" font-size="14.00">index</text>
<polyline fill="none" stroke="black" points="-225.033,-167 -98.9673,-167 "/>
<polyline fill="none" stroke="black" points="-225.033,-143 -98.9673,-143 "/>
<text text-anchor="start" x="-217.033" y="-127.8" font-family="Times,serif" font-size="14.00">_layout</text>
</g>
</g>
</svg>
