<?xml version="1.0" encoding="UTF-8" standalone="no"?>
<!DOCTYPE svg PUBLIC "-//W3C//DTD SVG 1.1//EN"
 "http://www.w3.org/Graphics/SVG/1.1/DTD/svg11.dtd">
<!-- Generated by graphviz version 2.38.0 (20140413.2041)
 -->
<!-- Title: models_diagram Pages: 1 -->
<svg width="832pt" height="967pt"
 viewBox="0.00 0.00 832.25 967.00" xmlns="http://www.w3.org/2000/svg" xmlns:xlink="http://www.w3.org/1999/xlink">
<g id="graph0" class="graph" transform="scale(1 1) rotate(0) translate(4 963)">
<title>models_diagram</title>
<polygon fill="white" stroke="none" points="-4,4 -4,-963 828.252,-963 828.252,4 -4,4"/>
<!-- _diagram_info -->
<g id="node1" class="node"><title>_diagram_info</title>
<text text-anchor="start" x="159.296" y="-916.6" font-family="Times,serif" font-size="13.00">Models diagram</text>
<text text-anchor="start" x="159.296" y="-903.6" font-family="Times,serif" font-size="13.00">Date: Feb 11 2015 &#45; 10:34</text>
<text text-anchor="start" x="159.296" y="-890.6" font-family="Times,serif" font-size="13.00">Migration version: 20150211034124</text>
<text text-anchor="start" x="159.296" y="-877.6" font-family="Times,serif" font-size="13.00">Generated by RailRoady 1.3.0</text>
<text text-anchor="start" x="159.296" y="-864.6" font-family="Times,serif" font-size="13.00">http://railroady.prestonlee.com</text>
</g>
<!-- Allergy -->
<g id="node2" class="node"><title>Allergy</title>
<path fill="none" stroke="black" d="M388.241,-851.5C388.241,-851.5 497.252,-851.5 497.252,-851.5 503.252,-851.5 509.252,-857.5 509.252,-863.5 509.252,-863.5 509.252,-925.5 509.252,-925.5 509.252,-931.5 503.252,-937.5 497.252,-937.5 497.252,-937.5 388.241,-937.5 388.241,-937.5 382.241,-937.5 376.241,-931.5 376.241,-925.5 376.241,-925.5 376.241,-863.5 376.241,-863.5 376.241,-857.5 382.241,-851.5 388.241,-851.5"/>
<text text-anchor="middle" x="442.746" y="-922.3" font-family="Times,serif" font-size="14.00">Allergy</text>
<polyline fill="none" stroke="black" points="376.241,-915.5 509.252,-915.5 "/>
<text text-anchor="start" x="384.241" y="-900.3" font-family="Times,serif" font-size="14.00">id :integer</text>
<text text-anchor="start" x="384.241" y="-886.3" font-family="Times,serif" font-size="14.00">name :string</text>
<text text-anchor="start" x="384.241" y="-872.3" font-family="Times,serif" font-size="14.00">created_at :datetime</text>
<text text-anchor="start" x="384.241" y="-858.3" font-family="Times,serif" font-size="14.00">updated_at :datetime</text>
</g>
<!-- Foodflag -->
<g id="node5" class="node"><title>Foodflag</title>
<path fill="none" stroke="black" d="M257.793,-526.5C257.793,-526.5 391.7,-526.5 391.7,-526.5 397.7,-526.5 403.7,-532.5 403.7,-538.5 403.7,-538.5 403.7,-600.5 403.7,-600.5 403.7,-606.5 397.7,-612.5 391.7,-612.5 391.7,-612.5 257.793,-612.5 257.793,-612.5 251.793,-612.5 245.793,-606.5 245.793,-600.5 245.793,-600.5 245.793,-538.5 245.793,-538.5 245.793,-532.5 251.793,-526.5 257.793,-526.5"/>
<text text-anchor="middle" x="324.746" y="-597.3" font-family="Times,serif" font-size="14.00">Foodflag</text>
<polyline fill="none" stroke="black" points="245.793,-590.5 403.7,-590.5 "/>
<text text-anchor="start" x="253.793" y="-575.3" font-family="Times,serif" font-size="14.00">id :integer</text>
<text text-anchor="start" x="253.793" y="-561.3" font-family="Times,serif" font-size="14.00">food :string</text>
<text text-anchor="start" x="253.793" y="-547.3" font-family="Times,serif" font-size="14.00">ingredientflag_id :integer</text>
<text text-anchor="start" x="253.793" y="-533.3" font-family="Times,serif" font-size="14.00">allergy_id :integer</text>
</g>
<!-- Allergy&#45;&gt;Foodflag -->
<g id="edge1" class="edge"><title>Allergy&#45;&gt;Foodflag</title>
<path fill="none" stroke="#f84ed9" d="M398.777,-844.751C386.743,-829.16 374.809,-811.2 366.746,-793 342.396,-738.033 332.15,-669.334 327.847,-622.926"/>
<ellipse fill="none" stroke="#f84ed9" cx="401.452" cy="-848.142" rx="4.00002" ry="4.00002"/>
<polygon fill="#f84ed9" stroke="#f84ed9" points="327.832,-622.758 331.452,-612.406 327.401,-617.776 326.969,-612.795 326.969,-612.795 326.969,-612.795 327.401,-617.776 322.486,-613.183 327.832,-622.758 327.832,-622.758"/>
</g>
<!-- Ingredientflag -->
<g id="node6" class="node"><title>Ingredientflag</title>
<path fill="none" stroke="black" d="M388.241,-706.5C388.241,-706.5 497.252,-706.5 497.252,-706.5 503.252,-706.5 509.252,-712.5 509.252,-718.5 509.252,-718.5 509.252,-780.5 509.252,-780.5 509.252,-786.5 503.252,-792.5 497.252,-792.5 497.252,-792.5 388.241,-792.5 388.241,-792.5 382.241,-792.5 376.241,-786.5 376.241,-780.5 376.241,-780.5 376.241,-718.5 376.241,-718.5 376.241,-712.5 382.241,-706.5 388.241,-706.5"/>
<text text-anchor="middle" x="442.746" y="-777.3" font-family="Times,serif" font-size="14.00">Ingredientflag</text>
<polyline fill="none" stroke="black" points="376.241,-770.5 509.252,-770.5 "/>
<text text-anchor="start" x="384.241" y="-755.3" font-family="Times,serif" font-size="14.00">id :integer</text>
<text text-anchor="start" x="384.241" y="-741.3" font-family="Times,serif" font-size="14.00">name :string</text>
<text text-anchor="start" x="384.241" y="-727.3" font-family="Times,serif" font-size="14.00">created_at :datetime</text>
<text text-anchor="start" x="384.241" y="-713.3" font-family="Times,serif" font-size="14.00">updated_at :datetime</text>
</g>
<!-- Allergy&#45;&gt;Ingredientflag -->
<g id="edge2" class="edge"><title>Allergy&#45;&gt;Ingredientflag</title>
<path fill="none" stroke="#504d68" d="M442.746,-841.151C442.746,-828.727 442.746,-815.47 442.746,-803.037"/>
<polygon fill="#504d68" stroke="#504d68" points="442.746,-841.369 438.246,-851.369 442.746,-846.369 442.746,-851.369 442.746,-851.369 442.746,-851.369 442.746,-846.369 447.246,-851.369 442.746,-841.369 442.746,-841.369"/>
<polygon fill="#504d68" stroke="#504d68" points="442.746,-802.824 447.246,-792.824 442.746,-797.824 442.746,-792.824 442.746,-792.824 442.746,-792.824 442.746,-797.824 438.246,-792.824 442.746,-802.824 442.746,-802.824"/>
</g>
<!-- User -->
<g id="node11" class="node"><title>User</title>
<path fill="none" stroke="black" d="M570.468,-193.5C570.468,-193.5 751.024,-193.5 751.024,-193.5 757.024,-193.5 763.024,-199.5 763.024,-205.5 763.024,-205.5 763.024,-407.5 763.024,-407.5 763.024,-413.5 757.024,-419.5 751.024,-419.5 751.024,-419.5 570.468,-419.5 570.468,-419.5 564.468,-419.5 558.468,-413.5 558.468,-407.5 558.468,-407.5 558.468,-205.5 558.468,-205.5 558.468,-199.5 564.468,-193.5 570.468,-193.5"/>
<text text-anchor="middle" x="660.746" y="-404.3" font-family="Times,serif" font-size="14.00">User</text>
<polyline fill="none" stroke="black" points="558.468,-397.5 763.024,-397.5 "/>
<text text-anchor="start" x="566.468" y="-382.3" font-family="Times,serif" font-size="14.00">id :integer</text>
<text text-anchor="start" x="566.468" y="-368.3" font-family="Times,serif" font-size="14.00">email :string</text>
<text text-anchor="start" x="566.468" y="-354.3" font-family="Times,serif" font-size="14.00">encrypted_password :string</text>
<text text-anchor="start" x="566.468" y="-340.3" font-family="Times,serif" font-size="14.00">reset_password_token :string</text>
<text text-anchor="start" x="566.468" y="-326.3" font-family="Times,serif" font-size="14.00">reset_password_sent_at :datetime</text>
<text text-anchor="start" x="566.468" y="-312.3" font-family="Times,serif" font-size="14.00">remember_created_at :datetime</text>
<text text-anchor="start" x="566.468" y="-298.3" font-family="Times,serif" font-size="14.00">sign_in_count :integer</text>
<text text-anchor="start" x="566.468" y="-284.3" font-family="Times,serif" font-size="14.00">current_sign_in_at :datetime</text>
<text text-anchor="start" x="566.468" y="-270.3" font-family="Times,serif" font-size="14.00">last_sign_in_at :datetime</text>
<text text-anchor="start" x="566.468" y="-256.3" font-family="Times,serif" font-size="14.00">current_sign_in_ip :inet</text>
<text text-anchor="start" x="566.468" y="-242.3" font-family="Times,serif" font-size="14.00">last_sign_in_ip :inet</text>
<text text-anchor="start" x="566.468" y="-228.3" font-family="Times,serif" font-size="14.00">created_at :datetime</text>
<text text-anchor="start" x="566.468" y="-214.3" font-family="Times,serif" font-size="14.00">updated_at :datetime</text>
<text text-anchor="start" x="566.468" y="-200.3" font-family="Times,serif" font-size="14.00">name :string</text>
</g>
<!-- Allergy&#45;&gt;User -->
<g id="edge3" class="edge"><title>Allergy&#45;&gt;User</title>
<path fill="none" stroke="#a78b4b" d="M494.942,-844.154C570.771,-768.398 707.891,-615.008 758.746,-452 761.021,-444.709 761.898,-437.454 761.632,-430.298"/>
<polygon fill="#a78b4b" stroke="#a78b4b" points="494.898,-844.197 484.63,-848.047 491.349,-847.719 487.8,-851.241 487.8,-851.241 487.8,-851.241 491.349,-847.719 490.969,-854.435 494.898,-844.197 494.898,-844.197"/>
<polygon fill="#a78b4b" stroke="#a78b4b" points="761.579,-429.828 764.924,-419.385 761.016,-424.86 760.452,-419.892 760.452,-419.892 760.452,-419.892 761.016,-424.86 755.981,-420.398 761.579,-429.828 761.579,-429.828"/>
</g>
<!-- AverageCache -->
<g id="node3" class="node"><title>AverageCache</title>
<path fill="none" stroke="black" d="M539.241,-830.5C539.241,-830.5 648.252,-830.5 648.252,-830.5 654.252,-830.5 660.252,-836.5 660.252,-842.5 660.252,-842.5 660.252,-946.5 660.252,-946.5 660.252,-952.5 654.252,-958.5 648.252,-958.5 648.252,-958.5 539.241,-958.5 539.241,-958.5 533.241,-958.5 527.241,-952.5 527.241,-946.5 527.241,-946.5 527.241,-842.5 527.241,-842.5 527.241,-836.5 533.241,-830.5 539.241,-830.5"/>
<text text-anchor="middle" x="593.746" y="-943.3" font-family="Times,serif" font-size="14.00">AverageCache</text>
<polyline fill="none" stroke="black" points="527.241,-936.5 660.252,-936.5 "/>
<text text-anchor="start" x="535.241" y="-921.3" font-family="Times,serif" font-size="14.00">id :integer</text>
<text text-anchor="start" x="535.241" y="-907.3" font-family="Times,serif" font-size="14.00">rater_id :integer</text>
<text text-anchor="start" x="535.241" y="-893.3" font-family="Times,serif" font-size="14.00">rateable_id :integer</text>
<text text-anchor="start" x="535.241" y="-879.3" font-family="Times,serif" font-size="14.00">rateable_type :string</text>
<text text-anchor="start" x="535.241" y="-865.3" font-family="Times,serif" font-size="14.00">avg :float</text>
<text text-anchor="start" x="535.241" y="-851.3" font-family="Times,serif" font-size="14.00">created_at :datetime</text>
<text text-anchor="start" x="535.241" y="-837.3" font-family="Times,serif" font-size="14.00">updated_at :datetime</text>
</g>
<!-- Comment -->
<g id="node4" class="node"><title>Comment</title>
<path fill="none" stroke="black" d="M703.241,-14.5C703.241,-14.5 812.252,-14.5 812.252,-14.5 818.252,-14.5 824.252,-20.5 824.252,-26.5 824.252,-26.5 824.252,-116.5 824.252,-116.5 824.252,-122.5 818.252,-128.5 812.252,-128.5 812.252,-128.5 703.241,-128.5 703.241,-128.5 697.241,-128.5 691.241,-122.5 691.241,-116.5 691.241,-116.5 691.241,-26.5 691.241,-26.5 691.241,-20.5 697.241,-14.5 703.241,-14.5"/>
<text text-anchor="middle" x="757.746" y="-113.3" font-family="Times,serif" font-size="14.00">Comment</text>
<polyline fill="none" stroke="black" points="691.241,-106.5 824.252,-106.5 "/>
<text text-anchor="start" x="699.241" y="-91.3" font-family="Times,serif" font-size="14.00">id :integer</text>
<text text-anchor="start" x="699.241" y="-77.3" font-family="Times,serif" font-size="14.00">body :string</text>
<text text-anchor="start" x="699.241" y="-63.3" font-family="Times,serif" font-size="14.00">important :boolean</text>
<text text-anchor="start" x="699.241" y="-49.3" font-family="Times,serif" font-size="14.00">user_id :integer</text>
<text text-anchor="start" x="699.241" y="-35.3" font-family="Times,serif" font-size="14.00">created_at :datetime</text>
<text text-anchor="start" x="699.241" y="-21.3" font-family="Times,serif" font-size="14.00">updated_at :datetime</text>
</g>
<!-- Ingredientflag&#45;&gt;Foodflag -->
<g id="edge4" class="edge"><title>Ingredientflag&#45;&gt;Foodflag</title>
<path fill="none" stroke="#911ef3" d="M410.288,-699.537C394.138,-675.176 374.638,-645.76 358.336,-621.169"/>
<ellipse fill="none" stroke="#911ef3" cx="412.572" cy="-702.983" rx="4.00002" ry="4.00002"/>
<polygon fill="#911ef3" stroke="#911ef3" points="358.239,-621.024 356.465,-610.202 355.477,-616.856 352.714,-612.689 352.714,-612.689 352.714,-612.689 355.477,-616.856 348.963,-615.175 358.239,-621.024 358.239,-621.024"/>
</g>
<!-- Recipe -->
<g id="node10" class="node"><title>Recipe</title>
<path fill="none" stroke="black" d="M433.306,-470.5C433.306,-470.5 588.186,-470.5 588.186,-470.5 594.186,-470.5 600.186,-476.5 600.186,-482.5 600.186,-482.5 600.186,-656.5 600.186,-656.5 600.186,-662.5 594.186,-668.5 588.186,-668.5 588.186,-668.5 433.306,-668.5 433.306,-668.5 427.306,-668.5 421.306,-662.5 421.306,-656.5 421.306,-656.5 421.306,-482.5 421.306,-482.5 421.306,-476.5 427.306,-470.5 433.306,-470.5"/>
<text text-anchor="middle" x="510.746" y="-653.3" font-family="Times,serif" font-size="14.00">Recipe</text>
<polyline fill="none" stroke="black" points="421.306,-646.5 600.186,-646.5 "/>
<text text-anchor="start" x="429.306" y="-631.3" font-family="Times,serif" font-size="14.00">id :integer</text>
<text text-anchor="start" x="429.306" y="-617.3" font-family="Times,serif" font-size="14.00">title :string</text>
<text text-anchor="start" x="429.306" y="-603.3" font-family="Times,serif" font-size="14.00">ingredients :text</text>
<text text-anchor="start" x="429.306" y="-589.3" font-family="Times,serif" font-size="14.00">category :string</text>
<text text-anchor="start" x="429.306" y="-575.3" font-family="Times,serif" font-size="14.00">directions :text</text>
<text text-anchor="start" x="429.306" y="-561.3" font-family="Times,serif" font-size="14.00">user_id :integer</text>
<text text-anchor="start" x="429.306" y="-547.3" font-family="Times,serif" font-size="14.00">created_at :datetime</text>
<text text-anchor="start" x="429.306" y="-533.3" font-family="Times,serif" font-size="14.00">updated_at :datetime</text>
<text text-anchor="start" x="429.306" y="-519.3" font-family="Times,serif" font-size="14.00">picture_file_name :string</text>
<text text-anchor="start" x="429.306" y="-505.3" font-family="Times,serif" font-size="14.00">picture_content_type :string</text>
<text text-anchor="start" x="429.306" y="-491.3" font-family="Times,serif" font-size="14.00">picture_file_size :integer</text>
<text text-anchor="start" x="429.306" y="-477.3" font-family="Times,serif" font-size="14.00">picture_updated_at :datetime</text>
</g>
<!-- Ingredientflag&#45;&gt;Recipe -->
<g id="edge5" class="edge"><title>Ingredientflag&#45;&gt;Recipe</title>
<path fill="none" stroke="#8a9b00" d="M462.476,-696.854C464.777,-690.831 467.184,-684.529 469.644,-678.092"/>
<polygon fill="#8a9b00" stroke="#8a9b00" points="462.43,-696.975 454.658,-704.711 460.646,-701.646 458.861,-706.316 458.861,-706.316 458.861,-706.316 460.646,-701.646 463.065,-707.922 462.43,-696.975 462.43,-696.975"/>
<polygon fill="#8a9b00" stroke="#8a9b00" points="469.709,-677.921 477.481,-670.185 471.493,-673.25 473.278,-668.579 473.278,-668.579 473.278,-668.579 471.493,-673.25 469.074,-666.973 469.709,-677.921 469.709,-677.921"/>
</g>
<!-- OverallAverage -->
<g id="node7" class="node"><title>OverallAverage</title>
<path fill="none" stroke="black" d="M690.241,-837.5C690.241,-837.5 799.252,-837.5 799.252,-837.5 805.252,-837.5 811.252,-843.5 811.252,-849.5 811.252,-849.5 811.252,-939.5 811.252,-939.5 811.252,-945.5 805.252,-951.5 799.252,-951.5 799.252,-951.5 690.241,-951.5 690.241,-951.5 684.241,-951.5 678.241,-945.5 678.241,-939.5 678.241,-939.5 678.241,-849.5 678.241,-849.5 678.241,-843.5 684.241,-837.5 690.241,-837.5"/>
<text text-anchor="middle" x="744.746" y="-936.3" font-family="Times,serif" font-size="14.00">OverallAverage</text>
<polyline fill="none" stroke="black" points="678.241,-929.5 811.252,-929.5 "/>
<text text-anchor="start" x="686.241" y="-914.3" font-family="Times,serif" font-size="14.00">id :integer</text>
<text text-anchor="start" x="686.241" y="-900.3" font-family="Times,serif" font-size="14.00">rateable_id :integer</text>
<text text-anchor="start" x="686.241" y="-886.3" font-family="Times,serif" font-size="14.00">rateable_type :string</text>
<text text-anchor="start" x="686.241" y="-872.3" font-family="Times,serif" font-size="14.00">overall_avg :float</text>
<text text-anchor="start" x="686.241" y="-858.3" font-family="Times,serif" font-size="14.00">created_at :datetime</text>
<text text-anchor="start" x="686.241" y="-844.3" font-family="Times,serif" font-size="14.00">updated_at :datetime</text>
</g>
<!-- Rate -->
<g id="node8" class="node"><title>Rate</title>
<path fill="none" stroke="black" d="M431.241,-0.5C431.241,-0.5 540.252,-0.5 540.252,-0.5 546.252,-0.5 552.252,-6.5 552.252,-12.5 552.252,-12.5 552.252,-130.5 552.252,-130.5 552.252,-136.5 546.252,-142.5 540.252,-142.5 540.252,-142.5 431.241,-142.5 431.241,-142.5 425.241,-142.5 419.241,-136.5 419.241,-130.5 419.241,-130.5 419.241,-12.5 419.241,-12.5 419.241,-6.5 425.241,-0.5 431.241,-0.5"/>
<text text-anchor="middle" x="485.746" y="-127.3" font-family="Times,serif" font-size="14.00">Rate</text>
<polyline fill="none" stroke="black" points="419.241,-120.5 552.252,-120.5 "/>
<text text-anchor="start" x="427.241" y="-105.3" font-family="Times,serif" font-size="14.00">id :integer</text>
<text text-anchor="start" x="427.241" y="-91.3" font-family="Times,serif" font-size="14.00">rater_id :integer</text>
<text text-anchor="start" x="427.241" y="-77.3" font-family="Times,serif" font-size="14.00">rateable_id :integer</text>
<text text-anchor="start" x="427.241" y="-63.3" font-family="Times,serif" font-size="14.00">rateable_type :string</text>
<text text-anchor="start" x="427.241" y="-49.3" font-family="Times,serif" font-size="14.00">stars :float</text>
<text text-anchor="start" x="427.241" y="-35.3" font-family="Times,serif" font-size="14.00">dimension :string</text>
<text text-anchor="start" x="427.241" y="-21.3" font-family="Times,serif" font-size="14.00">created_at :datetime</text>
<text text-anchor="start" x="427.241" y="-7.3" font-family="Times,serif" font-size="14.00">updated_at :datetime</text>
</g>
<!-- RatingCache -->
<g id="node9" class="node"><title>RatingCache</title>
<path fill="none" stroke="black" d="M46.9684,-235.5C46.9684,-235.5 164.524,-235.5 164.524,-235.5 170.524,-235.5 176.524,-241.5 176.524,-247.5 176.524,-247.5 176.524,-365.5 176.524,-365.5 176.524,-371.5 170.524,-377.5 164.524,-377.5 164.524,-377.5 46.9684,-377.5 46.9684,-377.5 40.9684,-377.5 34.9684,-371.5 34.9684,-365.5 34.9684,-365.5 34.9684,-247.5 34.9684,-247.5 34.9684,-241.5 40.9684,-235.5 46.9684,-235.5"/>
<text text-anchor="middle" x="105.746" y="-362.3" font-family="Times,serif" font-size="14.00">RatingCache</text>
<polyline fill="none" stroke="black" points="34.9684,-355.5 176.524,-355.5 "/>
<text text-anchor="start" x="42.9684" y="-340.3" font-family="Times,serif" font-size="14.00">id :integer</text>
<text text-anchor="start" x="42.9684" y="-326.3" font-family="Times,serif" font-size="14.00">cacheable_id :integer</text>
<text text-anchor="start" x="42.9684" y="-312.3" font-family="Times,serif" font-size="14.00">cacheable_type :string</text>
<text text-anchor="start" x="42.9684" y="-298.3" font-family="Times,serif" font-size="14.00">avg :float</text>
<text text-anchor="start" x="42.9684" y="-284.3" font-family="Times,serif" font-size="14.00">qty :integer</text>
<text text-anchor="start" x="42.9684" y="-270.3" font-family="Times,serif" font-size="14.00">dimension :string</text>
<text text-anchor="start" x="42.9684" y="-256.3" font-family="Times,serif" font-size="14.00">created_at :datetime</text>
<text text-anchor="start" x="42.9684" y="-242.3" font-family="Times,serif" font-size="14.00">updated_at :datetime</text>
</g>
<!-- Recipe&#45;&gt;Comment -->
<g id="edge6" class="edge"><title>Recipe&#45;&gt;Comment</title>
<path fill="none" stroke="#6e60e3" d="M608.031,-541.719C658.586,-523.536 718.121,-494.85 758.746,-452 837.779,-368.64 808.698,-222.804 782.107,-138.254"/>
<ellipse fill="none" stroke="#6e60e3" cx="604.092" cy="-543.107" rx="4.00001" ry="4.00001"/>
<polygon fill="#6e60e3" stroke="#6e60e3" points="782.034,-138.025 783.251,-127.127 780.501,-133.266 778.967,-128.507 778.967,-128.507 778.967,-128.507 780.501,-133.266 774.684,-129.886 782.034,-138.025 782.034,-138.025"/>
</g>
<!-- Recipe&#45;&gt;Rate -->
<g id="edge7" class="edge"><title>Recipe&#45;&gt;Rate</title>
<path fill="none" stroke="#0a1889" d="M414.578,-471.393C413.968,-470.925 413.357,-470.461 412.746,-470 376.048,-442.318 345.57,-459.589 322.208,-420 270.935,-333.112 276.707,-283.046 322.208,-193 340.824,-156.159 376.601,-127.818 409.957,-107.905"/>
<ellipse fill="none" stroke="#0a1889" cx="417.966" cy="-474.061" rx="4.00002" ry="4.00002"/>
<polygon fill="#0a1889" stroke="#0a1889" points="410.173,-107.779 421.082,-106.662 414.5,-105.274 418.827,-102.768 418.827,-102.768 418.827,-102.768 414.5,-105.274 416.572,-98.8738 410.173,-107.779 410.173,-107.779"/>
<text text-anchor="middle" x="392.515" y="-302.3" font-family="Times,serif" font-size="14.00">rates_without_dimension</text>
</g>
<!-- Recipe&#45;&gt;Rate -->
<g id="edge10" class="edge"><title>Recipe&#45;&gt;Rate</title>
<path fill="none" stroke="#30c3c4" d="M498.051,-462.06C496.684,-447.932 495.46,-433.627 494.546,-420 488.414,-328.604 486.46,-223.426 485.885,-152.939"/>
<ellipse fill="none" stroke="#30c3c4" cx="498.478" cy="-466.37" rx="4" ry="4"/>
<polygon fill="#30c3c4" stroke="#30c3c4" points="485.884,-152.796 490.31,-142.763 485.847,-147.797 485.81,-142.797 485.81,-142.797 485.81,-142.797 485.847,-147.797 481.31,-142.83 485.884,-152.796 485.884,-152.796"/>
<text text-anchor="middle" x="521.346" y="-302.3" font-family="Times,serif" font-size="14.00">title_rates</text>
</g>
<!-- Recipe&#45;&gt;RatingCache -->
<g id="edge9" class="edge"><title>Recipe&#45;&gt;RatingCache</title>
<path fill="none" stroke="#b6d404" d="M413.82,-470.482C413.463,-470.319 413.105,-470.159 412.746,-470 371.997,-451.977 42.93,-484.206 12.1388,-452 -11.2897,-427.495 4.4168,-396.339 29.1795,-369.236"/>
<ellipse fill="none" stroke="#b6d404" cx="417.649" cy="-472.385" rx="4.00002" ry="4.00002"/>
<ellipse fill="#b6d404" stroke="#b6d404" cx="32.1879" cy="-366.064" rx="4.00002" ry="4.00002"/>
<text text-anchor="middle" x="106.05" y="-440.8" font-family="Times,serif" font-size="14.00">rate_average_without_dimension</text>
</g>
<!-- Recipe&#45;&gt;RatingCache -->
<g id="edge12" class="edge"><title>Recipe&#45;&gt;RatingCache</title>
<path fill="none" stroke="#7fd76d" d="M413.808,-470.507C413.455,-470.336 413.101,-470.167 412.746,-470 335.519,-433.559 296.612,-492.542 221.456,-452 192.512,-436.386 168.219,-410.167 149.484,-384.316"/>
<ellipse fill="none" stroke="#7fd76d" cx="417.602" cy="-472.496" rx="4.00002" ry="4.00002"/>
<ellipse fill="#7fd76d" stroke="#7fd76d" cx="147.153" cy="-381.023" rx="4.00002" ry="4.00002"/>
<text text-anchor="middle" x="257.891" y="-440.8" font-family="Times,serif" font-size="14.00">title_average</text>
</g>
<!-- Recipe&#45;&gt;User -->
<g id="edge8" class="edge"><title>Recipe&#45;&gt;User</title>
<path fill="none" stroke="#106316" d="M534.14,-460.954C537.209,-453.011 540.663,-445.271 544.546,-438 547.136,-433.15 549.942,-428.332 552.92,-423.567"/>
<polygon fill="#106316" stroke="#106316" points="534.137,-460.961 526.482,-468.813 532.423,-465.658 530.71,-470.355 530.71,-470.355 530.71,-470.355 532.423,-465.658 534.937,-471.897 534.137,-460.961 534.137,-460.961"/>
<polygon fill="#106316" stroke="#106316" points="553.006,-423.434 562.229,-417.503 555.731,-419.242 558.456,-415.05 558.456,-415.05 558.456,-415.05 555.731,-419.242 554.684,-412.597 553.006,-423.434 553.006,-423.434"/>
<text text-anchor="middle" x="616.846" y="-440.8" font-family="Times,serif" font-size="14.00">raters_without_dimension</text>
</g>
<!-- Recipe&#45;&gt;User -->
<g id="edge11" class="edge"><title>Recipe&#45;&gt;User</title>
<path fill="none" stroke="#119cac" d="M609.473,-528.168C641.259,-509.902 672.862,-484.878 690.746,-452 694.62,-444.879 697.078,-437.31 698.411,-429.514"/>
<polygon fill="#119cac" stroke="#119cac" points="609.257,-528.288 598.33,-529.208 604.885,-530.715 600.514,-533.142 600.514,-533.142 600.514,-533.142 604.885,-530.715 602.698,-537.076 609.257,-528.288 609.257,-528.288"/>
<polygon fill="#119cac" stroke="#119cac" points="698.415,-429.472 703.992,-420.03 698.967,-424.503 699.519,-419.533 699.519,-419.533 699.519,-419.533 698.967,-424.503 695.047,-419.037 698.415,-429.472 698.415,-429.472"/>
<text text-anchor="middle" x="724.677" y="-440.8" font-family="Times,serif" font-size="14.00">title_raters</text>
</g>
<!-- User&#45;&gt;Comment -->
<g id="edge14" class="edge"><title>User&#45;&gt;Comment</title>
<path fill="none" stroke="#128bda" d="M710.475,-186.05C717.321,-169.605 724.134,-153.239 730.369,-138.263"/>
<ellipse fill="none" stroke="#128bda" cx="708.937" cy="-189.743" rx="4.00002" ry="4.00002"/>
<polygon fill="#128bda" stroke="#128bda" points="730.533,-137.867 738.531,-130.365 732.455,-133.251 734.377,-128.635 734.377,-128.635 734.377,-128.635 732.455,-133.251 730.222,-126.906 730.533,-137.867 730.533,-137.867"/>
</g>
<!-- User&#45;&gt;Rate -->
<g id="edge15" class="edge"><title>User&#45;&gt;Rate</title>
<path fill="none" stroke="#8c593e" d="M571.716,-186.963C562.587,-174.808 553.48,-162.682 544.793,-151.116"/>
<ellipse fill="none" stroke="#8c593e" cx="574.176" cy="-190.238" rx="4.00002" ry="4.00002"/>
<polygon fill="#8c593e" stroke="#8c593e" points="544.552,-150.796 542.145,-140.098 541.55,-146.798 538.547,-142.8 538.547,-142.8 538.547,-142.8 541.55,-146.798 534.949,-145.503 544.552,-150.796 544.552,-150.796"/>
<text text-anchor="middle" x="594.85" y="-163.8" font-family="Times,serif" font-size="14.00">ratings_given</text>
</g>
<!-- User&#45;&gt;Recipe -->
<g id="edge13" class="edge"><title>User&#45;&gt;Recipe</title>
<path fill="none" stroke="#46b539" d="M553.018,-411.765C544.196,-421.951 537.299,-431.06 533.746,-438 530.094,-445.134 527.01,-452.743 524.408,-460.565"/>
<ellipse fill="none" stroke="#46b539" cx="555.774" cy="-408.649" rx="4.00002" ry="4.00002"/>
<polygon fill="#46b539" stroke="#46b539" points="524.387,-460.631 517.162,-468.88 522.926,-465.413 521.465,-470.195 521.465,-470.195 521.465,-470.195 522.926,-465.413 525.769,-471.51 524.387,-460.631 524.387,-460.631"/>
</g>
</g>
</svg>
